Chivo-Italic.ufo
<glyph name="quotedbl" format="1">
  <advance width="363"/>
  <unicode hex="0022"/>
  <outline>
    <contour>
      <point x="273" y="686" type="line"/>
      <point x="252" y="539" type="line"/>
      <point x="252" y="407" type="line"/>
      <point x="292" y="407" type="line"/>
      <point x="305" y="451"/>
      <point x="319" y="494"/>
      <point x="334" y="539" type="curve"/>
      <point x="355" y="686" type="line"/>
    </contour>
    <contour>
      <point x="119" y="686" type="line"/>
      <point x="98" y="539" type="line"/>
      <point x="98" y="407" type="line"/>
      <point x="139" y="407" type="line"/>
      <point x="152" y="451"/>
      <point x="167" y="494"/>
      <point x="180" y="539" type="curve"/>
      <point x="201" y="686" type="line"/>
    </contour>
  </outline>
</glyph>
<glyph name="dollar" format="1">
  <advance width="546"/>
  <unicode hex="0024"/>
  <outline>
    <contour>
      <point x="298" y="760" type="line"/>
      <point x="298" y="671" type="line"/>
      <point x="191" y="671"/>
      <point x="73" y="615"/>
      <point x="73" y="471" type="curve" smooth="yes"/>
      <point x="73" y="274"/>
      <point x="408" y="354"/>
      <point x="408" y="214" type="curve" smooth="yes"/>
      <point x="408" y="142"/>
      <point x="344" y="105"/>
      <point x="241" y="105" type="curve" smooth="yes"/>
      <point x="165" y="105"/>
      <point x="113" y="132"/>
      <point x="113" y="192" type="curve" smooth="yes"/>
      <point x="113" y="199"/>
      <point x="114" y="223"/>
      <point x="118" y="227" type="curve"/>
      <point x="23" y="227" type="line"/>
      <point x="19" y="214"/>
      <point x="17" y="192"/>
      <point x="17" y="177" type="curve" smooth="yes"/>
      <point x="17" y="71"/>
      <point x="99" y="25"/>
      <point x="206" y="20" type="curve"/>
      <point x="183" y="-66" type="line"/>
      <point x="256" y="-66" type="line"/>
      <point x="256" y="19" type="line"/>
      <point x="376" y="19"/>
      <point x="505" y="74"/>
      <point x="505" y="243" type="curve" smooth="yes"/>
      <point x="505" y="435"/>
      <point x="170" y="369"/>
      <point x="170" y="494" type="curve" smooth="yes"/>
      <point x="170" y="558"/>
      <point x="236" y="586"/>
      <point x="317" y="586" type="curve" smooth="yes"/>
      <point x="385" y="586"/>
      <point x="433" y="560"/>
      <point x="433" y="509" type="curve" smooth="yes"/>
      <point x="433" y="502"/>
      <point x="430" y="491"/>
      <point x="430" y="483" type="curve"/>
      <point x="525" y="483" type="line"/>
      <point x="528" y="506"/>
      <point x="528" y="515"/>
      <point x="528" y="524" type="curve" smooth="yes"/>
      <point x="528" y="621"/>
      <point x="451" y="666"/>
      <point x="349" y="671" type="curve"/>
      <point x="373" y="760" type="line"/>
    </contour>
  </outline>
</glyph>
<glyph name="quotesingle" format="1">
  <advance width="209"/>
  <unicode hex="0027"/>
  <outline>
    <contour>
      <point x="119" y="686" type="line"/>
      <point x="98" y="539" type="line"/>
      <point x="98" y="407" type="line"/>
      <point x="138" y="407" type="line"/>
      <point x="153" y="451"/>
      <point x="165" y="494"/>
      <point x="180" y="539" type="curve"/>
      <point x="201" y="686" type="line"/>
    </contour>
  </outline>
</glyph>
<glyph name="parenleft" format="1">
  <advance width="289"/>
  <unicode hex="0028"/>
  <outline>
    <contour>
      <point x="264" y="686" type="line"/>
      <point x="125" y="545"/>
      <point x="39" y="377"/>
      <point x="39" y="178" type="curve" smooth="yes"/>
      <point x="39" y="53"/>
      <point x="76" y="-62"/>
      <point x="145" y="-157" type="curve"/>
      <point x="197" y="-157" type="line"/>
      <point x="152" y="-65"/>
      <point x="121" y="50"/>
      <point x="121" y="170" type="curve" smooth="yes"/>
      <point x="121" y="360"/>
      <point x="205" y="543"/>
      <point x="316" y="686" type="curve"/>
    </contour>
  </outline>
</glyph>
<glyph name="hyphen" format="1">
  <advance width="390"/>
  <unicode hex="002D"/>
  <outline>
    <contour>
      <point x="72" y="319" type="line"/>
      <point x="60" y="221" type="line"/>
      <point x="311" y="221" type="line"/>
      <point x="324" y="319" type="line"/>
    </contour>
  </outline>
</glyph>
<glyph name="slash" format="1">
  <advance width="489"/>
  <unicode hex="002F"/>
  <outline>
    <contour>
      <point x="445" y="686" type="line"/>
      <point x="-45" y="-171" type="line"/>
      <point x="36" y="-171" type="line"/>
      <point x="525" y="686" type="line"/>
    </contour>
  </outline>
</glyph>
<glyph name="one" format="1">
  <advance width="615"/>
  <unicode hex="0031"/>
  <outline>
    <contour>
      <point x="395" y="686" type="line"/>
      <point x="300" y="647"/>
      <point x="210" y="626"/>
      <point x="143" y="619" type="curve"/>
      <point x="134" y="555" type="line"/>
      <point x="316" y="555" type="line"/>
      <point x="251" y="89" type="line"/>
      <point x="71" y="89" type="line"/>
      <point x="58" y="0" type="line"/>
      <point x="516" y="0" type="line"/>
      <point x="529" y="89" type="line"/>
      <point x="349" y="89" type="line"/>
      <point x="433" y="686" type="line"/>
    </contour>
  </outline>
</glyph>
<glyph name="four" format="1">
  <advance width="615"/>
  <unicode hex="0034"/>
  <outline>
    <contour>
      <point x="320" y="696" type="line"/>
      <point x="245" y="539"/>
      <point x="151" y="391"/>
      <point x="46" y="259" type="curve"/>
      <point x="33" y="169" type="line"/>
      <point x="356" y="169" type="line"/>
      <point x="333" y="0" type="line"/>
      <point x="431" y="0" type="line"/>
      <point x="454" y="169" type="line"/>
      <point x="541" y="169" type="line"/>
      <point x="554" y="258" type="line"/>
      <point x="467" y="258" type="line"/>
      <point x="514" y="594" type="line"/>
      <point x="470" y="594" type="line"/>
      <point x="449" y="541"/>
      <point x="429" y="506"/>
      <point x="397" y="457" type="curve"/>
      <point x="369" y="258" type="line"/>
      <point x="139" y="258" type="line"/>
      <point x="195" y="314"/>
      <point x="350" y="512"/>
      <point x="425" y="696" type="curve"/>
    </contour>
  </outline>
</glyph>
<glyph name="seven" format="1">
  <advance width="615"/>
  <unicode hex="0037"/>
  <outline>
    <contour>
      <point x="128" y="686" type="line"/>
      <point x="115" y="597" type="line"/>
      <point x="472" y="597" type="line"/>
      <point x="339" y="453"/>
      <point x="170" y="236"/>
      <point x="138" y="0" type="curve"/>
      <point x="252" y="0" type="line"/>
      <point x="255" y="24"/>
      <point x="255" y="32"/>
      <point x="258" y="51" type="curve" smooth="yes"/>
      <point x="290" y="273"/>
      <point x="463" y="491"/>
      <point x="602" y="633" type="curve"/>
      <point x="610" y="686" type="line"/>
    </contour>
  </outline>
</glyph>
<glyph name="colon" format="1">
  <advance width="238"/>
  <unicode hex="003A"/>
  <outline>
    <contour>
      <point x="99" y="511" type="line"/>
      <point x="84" y="399" type="line"/>
      <point x="185" y="399" type="line"/>
      <point x="200" y="511" type="line"/>
    </contour>
    <contour>
      <point x="43" y="111" type="line"/>
      <point x="28" y="0" type="line"/>
      <point x="129" y="0" type="line"/>
      <point x="144" y="111" type="line"/>
    </contour>
  </outline>
</glyph>
<glyph name="equal" format="1">
  <advance width="615"/>
  <unicode hex="003D"/>
  <outline>
    <contour>
      <point x="71" y="402" type="line"/>
      <point x="59" y="318" type="line"/>
      <point x="563" y="318" type="line"/>
      <point x="575" y="402" type="line"/>
    </contour>
    <contour>
      <point x="41" y="189" type="line"/>
      <point x="30" y="106" type="line"/>
      <point x="534" y="106" type="line"/>
      <point x="545" y="189" type="line"/>
    </contour>
  </outline>
</glyph>
<glyph name="D" format="1">
  <advance width="677"/>
  <unicode hex="0044"/>
  <outline>
    <contour>
      <point x="148" y="686" type="line"/>
      <point x="51" y="0" type="line"/>
      <point x="289" y="0" type="line" smooth="yes"/>
      <point x="470" y="0"/>
      <point x="593" y="99"/>
      <point x="618" y="308" type="curve" smooth="yes"/>
      <point x="629" y="402"/>
      <point x="631" y="421"/>
      <point x="631" y="442" type="curve" smooth="yes"/>
      <point x="631" y="607"/>
      <point x="526" y="686"/>
      <point x="386" y="686" type="curve" smooth="yes"/>
    </contour>
    <contour>
      <point x="467" y="597"/>
      <point x="532" y="548"/>
      <point x="532" y="432" type="curve" smooth="yes"/>
      <point x="532" y="415"/>
      <point x="530" y="397"/>
      <point x="519" y="308" type="curve"/>
      <point x="498" y="152"/>
      <point x="408" y="89"/>
      <point x="302" y="89" type="curve" smooth="yes"/>
      <point x="162" y="89" type="line"/>
      <point x="233" y="597" type="line"/>
      <point x="373" y="597" type="line" smooth="yes"/>
    </contour>
    <contour>
      <point x="339" y="343" type="move" name="center"/>
    </contour>
    <contour>
      <point x="339" y="686" type="move" name="top"/>
    </contour>
  </outline>
</glyph>
<glyph name="F" format="1">
  <advance width="552"/>
  <unicode hex="0046"/>
  <outline>
    <contour>
      <point x="148" y="686" type="line"/>
      <point x="51" y="0" type="line"/>
      <point x="149" y="0" type="line"/>
      <point x="191" y="299" type="line"/>
      <point x="471" y="299" type="line"/>
      <point x="484" y="388" type="line"/>
      <point x="204" y="388" type="line"/>
      <point x="233" y="597" type="line"/>
      <point x="554" y="597" type="line"/>
      <point x="580" y="686" type="line"/>
    </contour>
  </outline>
</glyph>
<glyph name="H" format="1">
  <advance width="693"/>
  <unicode hex="0048"/>
  <outline>
    <contour>
      <point x="559" y="686" type="line"/>
      <point x="518" y="395" type="line"/>
      <point x="205" y="395" type="line"/>
      <point x="246" y="686" type="line"/>
      <point x="148" y="686" type="line"/>
      <point x="51" y="0" type="line"/>
      <point x="149" y="0" type="line"/>
      <point x="192" y="306" type="line"/>
      <point x="505" y="306" type="line"/>
      <point x="462" y="0" type="line"/>
      <point x="560" y="0" type="line"/>
      <point x="657" y="686" type="line"/>
    </contour>
    <contour>
      <point x="347" y="343" type="move" name="center"/>
    </contour>
    <contour>
      <point x="403" y="686" type="move" name="top"/>
    </contour>
  </outline>
</glyph>
<glyph name="J" format="1">
  <advance width="525"/>
  <unicode hex="004A"/>
  <outline>
    <contour>
      <point x="394" y="686" type="line"/>
      <point x="323" y="181" type="line" smooth="yes"/>
      <point x="314" y="118"/>
      <point x="266" y="79"/>
      <point x="199" y="79" type="curve" smooth="yes"/>
      <point x="147" y="79"/>
      <point x="108" y="114"/>
      <point x="108" y="166" type="curve" smooth="yes"/>
      <point x="108" y="171"/>
      <point x="108" y="185"/>
      <point x="113" y="208" type="curve"/>
      <point x="16" y="208" type="line"/>
      <point x="9" y="176"/>
      <point x="10" y="161"/>
      <point x="10" y="149" type="curve" smooth="yes"/>
      <point x="10" y="43"/>
      <point x="93" y="-10"/>
      <point x="183" y="-10" type="curve" smooth="yes"/>
      <point x="192" y="-10" type="line" smooth="yes"/>
      <point x="320" y="-10"/>
      <point x="403" y="55"/>
      <point x="422" y="187" type="curve" smooth="yes"/>
      <point x="492" y="686" type="line"/>
    </contour>
    <contour>
      <point x="443" y="686" type="move" name="top"/>
    </contour>
  </outline>
</glyph>
<glyph name="N" format="1">
  <advance width="694"/>
  <unicode hex="004E"/>
  <outline>
    <contour>
      <point x="569" y="686" type="line"/>
      <point x="499" y="191" type="line"/>
      <point x="496" y="190" type="line"/>
      <point x="234" y="686" type="line"/>
      <point x="148" y="686" type="line"/>
      <point x="51" y="0" type="line"/>
      <point x="140" y="0" type="line"/>
      <point x="211" y="501" type="line"/>
      <point x="214" y="502" type="line"/>
      <point x="478" y="0" type="line"/>
      <point x="561" y="0" type="line"/>
      <point x="658" y="686" type="line"/>
    </contour>
    <contour>
      <point x="417" y="686" type="move" name="top"/>
    </contour>
    <contour>
      <point x="347" y="0" type="move" name="bottom"/>
    </contour>
  </outline>
</glyph>
<glyph name="P" format="1">
  <advance width="626"/>
  <unicode hex="0050"/>
  <outline>
    <contour>
      <point x="148" y="686" type="line"/>
      <point x="51" y="0" type="line"/>
      <point x="149" y="0" type="line"/>
      <point x="189" y="286" type="line"/>
      <point x="387" y="286" type="line" smooth="yes"/>
      <point x="527" y="286"/>
      <point x="623" y="378"/>
      <point x="623" y="517" type="curve" smooth="yes"/>
      <point x="623" y="620"/>
      <point x="547" y="686"/>
      <point x="444" y="686" type="curve" smooth="yes"/>
    </contour>
    <contour>
      <point x="482" y="597"/>
      <point x="524" y="556"/>
      <point x="524" y="500" type="curve" smooth="yes"/>
      <point x="524" y="433"/>
      <point x="459" y="375"/>
      <point x="391" y="375" type="curve" smooth="yes"/>
      <point x="202" y="375" type="line"/>
      <point x="233" y="597" type="line"/>
      <point x="422" y="597" type="line" smooth="yes"/>
    </contour>
  </outline>
</glyph>
<glyph name="R" format="1">
  <advance width="670"/>
  <unicode hex="0052"/>
  <outline>
    <contour>
      <point x="147" y="686" type="line"/>
      <point x="51" y="0" type="line"/>
      <point x="149" y="0" type="line"/>
      <point x="191" y="302" type="line"/>
      <point x="365" y="302" type="line" smooth="yes"/>
      <point x="408" y="302"/>
      <point x="461" y="273"/>
      <point x="461" y="173" type="curve" smooth="yes"/>
      <point x="461" y="157"/>
      <point x="454" y="110"/>
      <point x="454" y="85" type="curve" smooth="yes"/>
      <point x="454" y="10"/>
      <point x="493" y="-5"/>
      <point x="536" y="-5" type="curve" smooth="yes"/>
      <point x="557" y="-5"/>
      <point x="578" y="-1"/>
      <point x="589" y="3" type="curve"/>
      <point x="593" y="31" type="line"/>
      <point x="570" y="40"/>
      <point x="555" y="56"/>
      <point x="555" y="104" type="curve" smooth="yes"/>
      <point x="555" y="128"/>
      <point x="563" y="171"/>
      <point x="563" y="202" type="curve" smooth="yes"/>
      <point x="563" y="309"/>
      <point x="495" y="341"/>
      <point x="477" y="349" type="curve"/>
      <point x="477" y="354" type="line"/>
      <point x="573" y="370"/>
      <point x="625" y="461"/>
      <point x="625" y="543" type="curve" smooth="yes"/>
      <point x="625" y="642"/>
      <point x="539" y="686"/>
      <point x="439" y="686" type="curve" smooth="yes"/>
    </contour>
    <contour>
      <point x="488" y="597"/>
      <point x="523" y="562"/>
      <point x="523" y="511" type="curve" smooth="yes"/>
      <point x="523" y="442"/>
      <point x="459" y="391"/>
      <point x="399" y="391" type="curve" smooth="yes"/>
      <point x="204" y="391" type="line"/>
      <point x="233" y="597" type="line"/>
      <point x="428" y="597" type="line" smooth="yes"/>
    </contour>
    <contour>
      <point x="365" y="686" type="move" name="top"/>
    </contour>
    <contour>
      <point x="335" y="0" type="move" name="bottom"/>
    </contour>
  </outline>
</glyph>
<glyph name="T" format="1">
  <advance width="575"/>
  <unicode hex="0054"/>
  <outline>
    <contour>
      <point x="80" y="686" type="line"/>
      <point x="67" y="597" type="line"/>
      <point x="281" y="597" type="line"/>
      <point x="197" y="0" type="line"/>
      <point x="295" y="0" type="line"/>
      <point x="379" y="597" type="line"/>
      <point x="594" y="597" type="line"/>
      <point x="607" y="686" type="line"/>
    </contour>
    <contour>
      <point x="288" y="343" type="move" name="center"/>
    </contour>
    <contour>
      <point x="246" y="0" type="move" name="bottom"/>
    </contour>
    <contour>
      <point x="344" y="686" type="move" name="top"/>
    </contour>
  </outline>
</glyph>
<glyph name="W" format="1">
  <advance width="914"/>
  <unicode hex="0057"/>
  <outline>
    <contour>
      <point x="860" y="686" type="line"/>
      <point x="641" y="169" type="line"/>
      <point x="635" y="169" type="line"/>
      <point x="563" y="686" type="line"/>
      <point x="468" y="686" type="line"/>
      <point x="249" y="169" type="line"/>
      <point x="243" y="169" type="line"/>
      <point x="171" y="686" type="line"/>
      <point x="67" y="686" type="line"/>
      <point x="165" y="0" type="line"/>
      <point x="265" y="0" type="line"/>
      <point x="480" y="496" type="line"/>
      <point x="487" y="496" type="line"/>
      <point x="557" y="0" type="line"/>
      <point x="657" y="0" type="line"/>
      <point x="955" y="686" type="line"/>
    </contour>
    <contour>
      <point x="516" y="686" type="move" name="top"/>
    </contour>
  </outline>
</glyph>
<glyph name="Z" format="1">
  <advance width="595"/>
  <unicode hex="005A"/>
  <outline>
    <contour>
      <point x="112" y="686" type="line"/>
      <point x="99" y="597" type="line"/>
      <point x="440" y="597" type="line"/>
      <point x="-3" y="38" type="line"/>
      <point x="-9" y="0" type="line"/>
      <point x="514" y="0" type="line"/>
      <point x="527" y="89" type="line"/>
      <point x="153" y="89" type="line"/>
      <point x="597" y="648" type="line"/>
      <point x="603" y="686" type="line"/>
    </contour>
    <contour>
      <point x="358" y="686" type="move" name="top"/>
    </contour>
  </outline>
</glyph>
<glyph name="bracketright" format="1">
  <advance width="294"/>
  <unicode hex="005D"/>
  <outline>
    <contour>
      <point x="95" y="686" type="line"/>
      <point x="87" y="631" type="line"/>
      <point x="175" y="631" type="line"/>
      <point x="72" y="-106" type="line"/>
      <point x="-16" y="-106" type="line"/>
      <point x="-24" y="-161" type="line"/>
      <point x="145" y="-161" type="line"/>
      <point x="264" y="686" type="line"/>
    </contour>
  </outline>
</glyph>
<glyph name="h" format="1">
  <advance width="593"/>
  <unicode hex="0068"/>
  <outline>
    <contour>
      <point x="143" y="720" type="line"/>
      <point x="42" y="0" type="line"/>
      <point x="136" y="0" type="line"/>
      <point x="179" y="304" type="line" smooth="yes"/>
      <point x="190" y="384"/>
      <point x="264" y="446"/>
      <point x="335" y="446" type="curve" smooth="yes"/>
      <point x="391" y="446"/>
      <point x="428" y="420"/>
      <point x="428" y="356" type="curve"/>
      <point x="427" y="342"/>
      <point x="416" y="252"/>
      <point x="404" y="167" type="curve" smooth="yes"/>
      <point x="380" y="0" type="line"/>
      <point x="474" y="0" type="line"/>
      <point x="499" y="177" type="line" smooth="yes"/>
      <point x="512" y="268"/>
      <point x="525" y="362"/>
      <point x="525" y="380" type="curve" smooth="yes"/>
      <point x="525" y="478"/>
      <point x="458" y="521"/>
      <point x="367" y="521" type="curve" smooth="yes"/>
      <point x="310" y="521"/>
      <point x="251" y="500"/>
      <point x="199" y="447" type="curve"/>
      <point x="237" y="720" type="line"/>
    </contour>
    <contour>
      <point x="297" y="256" type="move" name="center"/>
    </contour>
    <contour>
      <point x="187" y="686" type="move" name="top"/>
    </contour>
  </outline>
</glyph>
<glyph name="j" format="1">
  <advance width="260"/>
  <unicode hex="006A"/>
  <outline>
    <contour>
      <point x="114" y="511" type="line"/>
      <point x="36" y="-44" type="line" smooth="yes"/>
      <point x="28" y="-103"/>
      <point x="-3" y="-112"/>
      <point x="-29" y="-112" type="curve" smooth="yes"/>
      <point x="-44" y="-112"/>
      <point x="-72" y="-104"/>
      <point x="-87" y="-97" type="curve"/>
      <point x="-96" y="-167" type="line"/>
      <point x="-77" y="-179"/>
      <point x="-42" y="-186"/>
      <point x="-14" y="-186" type="curve" smooth="yes"/>
      <point x="78" y="-186"/>
      <point x="117" y="-134"/>
      <point x="134" y="-15" type="curve" smooth="yes"/>
      <point x="208" y="511" type="line"/>
    </contour>
    <contour>
      <point x="141" y="720" type="line"/>
      <point x="129" y="633" type="line"/>
      <point x="227" y="633" type="line"/>
      <point x="239" y="720" type="line"/>
    </contour>
  </outline>
</glyph>
<glyph name="k" format="1">
  <advance width="534"/>
  <unicode hex="006B"/>
  <outline>
    <contour>
      <point x="143" y="720" type="line"/>
      <point x="42" y="0" type="line"/>
      <point x="136" y="0" type="line"/>
      <point x="151" y="110" type="line"/>
      <point x="240" y="190" type="line"/>
      <point x="366" y="0" type="line"/>
      <point x="480" y="0" type="line"/>
      <point x="307" y="263" type="line"/>
      <point x="539" y="511" type="line"/>
      <point x="436" y="511" type="line"/>
      <point x="168" y="226" type="line"/>
      <point x="237" y="720" type="line"/>
    </contour>
    <contour>
      <point x="267" y="0" type="move" name="bottom"/>
    </contour>
  </outline>
</glyph>
<glyph name="m" format="1">
  <advance width="867"/>
  <unicode hex="006D"/>
  <outline>
    <contour>
      <point x="601" y="521"/>
      <point x="544" y="505"/>
      <point x="485" y="436" type="curve"/>
      <point x="466" y="495"/>
      <point x="418" y="521"/>
      <point x="351" y="521" type="curve" smooth="yes"/>
      <point x="294" y="521"/>
      <point x="236" y="497"/>
      <point x="184" y="436" type="curve"/>
      <point x="184" y="511" type="line"/>
      <point x="114" y="511" type="line"/>
      <point x="42" y="0" type="line"/>
      <point x="136" y="0" type="line"/>
      <point x="179" y="304" type="line" smooth="yes"/>
      <point x="190" y="384"/>
      <point x="255" y="446"/>
      <point x="319" y="446" type="curve" smooth="yes"/>
      <point x="367" y="446"/>
      <point x="397" y="422"/>
      <point x="397" y="361" type="curve"/>
      <point x="396" y="348"/>
      <point x="384" y="258"/>
      <point x="372" y="171" type="curve" smooth="yes"/>
      <point x="348" y="0" type="line"/>
      <point x="442" y="0" type="line"/>
      <point x="485" y="304" type="line" smooth="yes"/>
      <point x="496" y="384"/>
      <point x="561" y="446"/>
      <point x="625" y="446" type="curve" smooth="yes"/>
      <point x="673" y="446"/>
      <point x="702" y="428"/>
      <point x="702" y="361" type="curve" smooth="yes"/>
      <point x="702" y="346"/>
      <point x="689" y="258"/>
      <point x="678" y="170" type="curve"/>
      <point x="654" y="0" type="line"/>
      <point x="748" y="0" type="line"/>
      <point x="773" y="177" type="line" smooth="yes"/>
      <point x="786" y="268"/>
      <point x="799" y="364"/>
      <point x="799" y="384" type="curve" smooth="yes"/>
      <point x="799" y="479"/>
      <point x="740" y="521"/>
      <point x="657" y="521" type="curve" smooth="yes"/>
    </contour>
  </outline>
</glyph>
<glyph name="q" format="1">
  <advance width="582"/>
  <unicode hex="0071"/>
  <outline>
    <contour>
      <point x="104" y="521"/>
      <point x="40" y="328"/>
      <point x="40" y="185" type="curve" smooth="yes"/>
      <point x="40" y="57"/>
      <point x="113" y="-10"/>
      <point x="209" y="-10" type="curve" smooth="yes"/>
      <point x="281" y="-10"/>
      <point x="339" y="24"/>
      <point x="374" y="65" type="curve"/>
      <point x="339" y="-180" type="line"/>
      <point x="433" y="-180" type="line"/>
      <point x="530" y="511" type="line"/>
      <point x="494" y="511" type="line"/>
      <point x="450" y="430" type="line"/>
      <point x="419" y="491"/>
      <point x="366" y="521"/>
      <point x="291" y="521" type="curve" smooth="yes"/>
    </contour>
    <contour>
      <point x="363" y="446"/>
      <point x="407" y="414"/>
      <point x="407" y="317" type="curve" smooth="yes"/>
      <point x="407" y="210"/>
      <point x="374" y="65"/>
      <point x="245" y="65" type="curve" smooth="yes"/>
      <point x="178" y="65"/>
      <point x="136" y="97"/>
      <point x="136" y="193" type="curve" smooth="yes"/>
      <point x="136" y="364"/>
      <point x="203" y="446"/>
      <point x="298" y="446" type="curve" smooth="yes"/>
    </contour>
  </outline>
</glyph>
<glyph name="t" format="1">
  <advance width="344"/>
  <unicode hex="0074"/>
  <outline>
    <contour>
      <point x="150" y="674" type="line"/>
      <point x="128" y="511" type="line"/>
      <point x="73" y="511" type="line"/>
      <point x="62" y="436" type="line"/>
      <point x="118" y="436" type="line"/>
      <point x="109" y="379"/>
      <point x="101" y="328"/>
      <point x="95" y="281" type="curve" smooth="yes"/>
      <point x="87" y="221" type="line" smooth="yes"/>
      <point x="79" y="162"/>
      <point x="73" y="109"/>
      <point x="73" y="93" type="curve" smooth="yes"/>
      <point x="73" y="20"/>
      <point x="108" y="-10"/>
      <point x="183" y="-10" type="curve" smooth="yes"/>
      <point x="212" y="-10"/>
      <point x="248" y="-3"/>
      <point x="271" y="8" type="curve"/>
      <point x="281" y="78" type="line"/>
      <point x="264" y="71"/>
      <point x="232" y="63"/>
      <point x="217" y="63" type="curve" smooth="yes"/>
      <point x="193" y="63"/>
      <point x="167" y="69"/>
      <point x="167" y="112" type="curve" smooth="yes"/>
      <point x="167" y="120"/>
      <point x="173" y="169"/>
      <point x="181" y="225" type="curve" smooth="yes"/>
      <point x="189" y="283" type="line" smooth="yes"/>
      <point x="195" y="329"/>
      <point x="203" y="380"/>
      <point x="212" y="436" type="curve"/>
      <point x="331" y="436" type="line"/>
      <point x="342" y="511" type="line"/>
      <point x="223" y="511" type="line"/>
      <point x="253" y="674" type="line"/>
    </contour>
    <contour>
      <point x="138" y="256" type="move" name="center"/>
    </contour>
    <contour>
      <point x="172" y="0" type="move" name="bottom"/>
    </contour>
    <contour>
      <point x="430" y="686" type="move" name="topright"/>
    </contour>
  </outline>
</glyph>
<glyph name="y" format="1">
  <advance width="510"/>
  <unicode hex="0079"/>
  <outline>
    <contour>
      <point x="437" y="511" type="line"/>
      <point x="239" y="134" type="line"/>
      <point x="235" y="134" type="line"/>
      <point x="141" y="511" type="line"/>
      <point x="42" y="511" type="line"/>
      <point x="169" y="5" type="line"/>
      <point x="124" y="-96"/>
      <point x="73" y="-109"/>
      <point x="49" y="-109" type="curve" smooth="yes"/>
      <point x="28" y="-109"/>
      <point x="4" y="-102"/>
      <point x="-9" y="-95" type="curve"/>
      <point x="-19" y="-172" type="line"/>
      <point x="0" y="-181"/>
      <point x="23" y="-186"/>
      <point x="52" y="-186" type="curve" smooth="yes"/>
      <point x="145" y="-186"/>
      <point x="210" y="-92"/>
      <point x="269" y="20" type="curve" smooth="yes"/>
      <point x="529" y="511" type="line"/>
    </contour>
    <contour>
      <point x="285" y="511" type="move" name="top"/>
    </contour>
  </outline>
</glyph>
<glyph name="z" format="1">
  <advance width="463"/>
  <unicode hex="007A"/>
  <outline>
    <contour>
      <point x="82" y="511" type="line"/>
      <point x="72" y="436" type="line"/>
      <point x="306" y="436" type="line"/>
      <point x="1" y="38" type="line"/>
      <point x="-4" y="0" type="line"/>
      <point x="383" y="0" type="line"/>
      <point x="393" y="75" type="line"/>
      <point x="135" y="75" type="line"/>
      <point x="441" y="474" type="line"/>
      <point x="446" y="511" type="line"/>
    </contour>
    <contour>
      <point x="262" y="511" type="move" name="top"/>
    </contour>
  </outline>
</glyph>
<glyph name="braceleft" format="1">
  <advance width="314"/>
  <unicode hex="007B"/>
  <outline>
    <contour>
      <point x="246" y="686"/>
      <point x="169" y="666"/>
      <point x="152" y="546" type="curve" smooth="yes"/>
      <point x="126" y="360" type="line" smooth="yes"/>
      <point x="120" y="317"/>
      <point x="78" y="303"/>
      <point x="41" y="303" type="curve"/>
      <point x="30" y="224" type="line"/>
      <point x="63" y="224"/>
      <point x="99" y="211"/>
      <point x="99" y="175" type="curve" smooth="yes"/>
      <point x="99" y="128"/>
      <point x="70" y="11"/>
      <point x="70" y="-52" type="curve" smooth="yes"/>
      <point x="70" y="-143"/>
      <point x="136" y="-159"/>
      <point x="211" y="-159" type="curve"/>
      <point x="218" y="-109" type="line"/>
      <point x="186" y="-109"/>
      <point x="148" y="-97"/>
      <point x="148" y="-52" type="curve"/>
      <point x="147" y="-39"/>
      <point x="150" y="-24"/>
      <point x="152" y="-5" type="curve" smooth="yes"/>
      <point x="159" y="55" type="line" smooth="yes"/>
      <point x="164" y="98"/>
      <point x="170" y="143"/>
      <point x="170" y="182" type="curve" smooth="yes"/>
      <point x="170" y="231"/>
      <point x="151" y="259"/>
      <point x="95" y="259" type="curve"/>
      <point x="96" y="268" type="line"/>
      <point x="160" y="268"/>
      <point x="188" y="306"/>
      <point x="200" y="371" type="curve" smooth="yes"/>
      <point x="212" y="436"/>
      <point x="225" y="500"/>
      <point x="234" y="565" type="curve" smooth="yes"/>
      <point x="242" y="623"/>
      <point x="287" y="636"/>
      <point x="323" y="636" type="curve"/>
      <point x="330" y="686" type="line"/>
    </contour>
  </outline>
</glyph>
<glyph name="cent" format="1">
  <advance width="527"/>
  <unicode hex="00A2"/>
  <outline>
    <contour>
      <point x="296" y="693" type="line"/>
      <point x="296" y="608" type="line"/>
      <point x="125" y="595"/>
      <point x="50" y="448"/>
      <point x="50" y="279" type="curve" smooth="yes"/>
      <point x="50" y="158"/>
      <point x="117" y="88"/>
      <point x="218" y="79" type="curve"/>
      <point x="199" y="-7" type="line"/>
      <point x="272" y="-7" type="line"/>
      <point x="272" y="78" type="line"/>
      <point x="393" y="86"/>
      <point x="473" y="159"/>
      <point x="492" y="288" type="curve"/>
      <point x="402" y="288" type="line"/>
      <point x="391" y="209"/>
      <point x="345" y="153"/>
      <point x="260" y="153" type="curve" smooth="yes"/>
      <point x="188" y="153"/>
      <point x="143" y="192"/>
      <point x="143" y="280" type="curve" smooth="yes"/>
      <point x="143" y="391"/>
      <point x="176" y="534"/>
      <point x="309" y="534" type="curve" smooth="yes"/>
      <point x="382" y="534"/>
      <point x="416" y="488"/>
      <point x="416" y="425" type="curve" smooth="yes"/>
      <point x="416" y="416"/>
      <point x="415" y="407"/>
      <point x="414" y="398" type="curve"/>
      <point x="507" y="398" type="line"/>
      <point x="509" y="411"/>
      <point x="510" y="423"/>
      <point x="510" y="434" type="curve" smooth="yes"/>
      <point x="510" y="534"/>
      <point x="449" y="597"/>
      <point x="350" y="608" type="curve"/>
      <point x="371" y="693" type="line"/>
    </contour>
  </outline>
</glyph>
<glyph name="sterling" format="1">
  <advance width="597"/>
  <unicode hex="00A3"/>
  <outline>
    <contour>
      <point x="415" y="696" type="line" smooth="yes"/>
      <point x="288" y="696"/>
      <point x="204" y="631"/>
      <point x="185" y="499" type="curve" smooth="yes"/>
      <point x="168" y="382" type="line"/>
      <point x="42" y="382" type="line"/>
      <point x="30" y="293" type="line"/>
      <point x="156" y="293" type="line"/>
      <point x="127" y="89" type="line"/>
      <point x="37" y="89" type="line"/>
      <point x="26" y="0" type="line"/>
      <point x="499" y="0" type="line"/>
      <point x="511" y="89" type="line"/>
      <point x="208" y="89" type="line"/>
      <point x="254" y="293" type="line"/>
      <point x="441" y="293" type="line"/>
      <point x="453" y="382" type="line"/>
      <point x="266" y="382" type="line"/>
      <point x="284" y="505" type="line" smooth="yes"/>
      <point x="293" y="568"/>
      <point x="335" y="607"/>
      <point x="408" y="607" type="curve" smooth="yes"/>
      <point x="460" y="607"/>
      <point x="499" y="572"/>
      <point x="499" y="520" type="curve" smooth="yes"/>
      <point x="499" y="515"/>
      <point x="499" y="510"/>
      <point x="495" y="490" type="curve"/>
      <point x="593" y="490" type="line"/>
      <point x="597" y="513"/>
      <point x="598" y="525"/>
      <point x="598" y="536" type="curve" smooth="yes"/>
      <point x="598" y="641"/>
      <point x="527" y="696"/>
      <point x="424" y="696" type="curve" smooth="yes"/>
    </contour>
  </outline>
</glyph>
<glyph name="currency" format="1">
  <advance width="624"/>
  <unicode hex="00A4"/>
  <outline>
    <contour>
      <point x="497" y="533" type="line"/>
      <point x="460" y="565"/>
      <point x="410" y="585"/>
      <point x="353" y="585" type="curve" smooth="yes"/>
      <point x="297" y="585"/>
      <point x="243" y="566"/>
      <point x="196" y="535" type="curve"/>
      <point x="153" y="587" type="line"/>
      <point x="98" y="539" type="line"/>
      <point x="142" y="487" type="line"/>
      <point x="109" y="452"/>
      <point x="68" y="390"/>
      <point x="68" y="301" type="curve" smooth="yes"/>
      <point x="68" y="258"/>
      <point x="79" y="219"/>
      <point x="100" y="186" type="curve"/>
      <point x="40" y="133" type="line"/>
      <point x="81" y="85" type="line"/>
      <point x="142" y="138" type="line"/>
      <point x="179" y="107"/>
      <point x="228" y="89"/>
      <point x="284" y="89" type="curve" smooth="yes"/>
      <point x="340" y="89"/>
      <point x="393" y="108"/>
      <point x="440" y="139" type="curve"/>
      <point x="487" y="85" type="line"/>
      <point x="542" y="133" type="line"/>
      <point x="495" y="187" type="line"/>
      <point x="539" y="238"/>
      <point x="569" y="301"/>
      <point x="569" y="369" type="curve" smooth="yes"/>
      <point x="569" y="411"/>
      <point x="559" y="450"/>
      <point x="538" y="485" type="curve"/>
      <point x="600" y="539" type="line"/>
      <point x="559" y="587" type="line"/>
    </contour>
    <contour>
      <point x="435" y="516"/>
      <point x="500" y="449"/>
      <point x="500" y="362" type="curve" smooth="yes"/>
      <point x="500" y="253"/>
      <point x="400" y="158"/>
      <point x="293" y="158" type="curve" smooth="yes"/>
      <point x="202" y="158"/>
      <point x="138" y="226"/>
      <point x="138" y="311" type="curve" smooth="yes"/>
      <point x="138" y="428"/>
      <point x="246" y="516"/>
      <point x="344" y="516" type="curve" smooth="yes"/>
    </contour>
  </outline>
</glyph>
<glyph name="yen" format="1">
  <advance width="635"/>
  <unicode hex="00A5"/>
  <outline>
    <contour>
      <point x="560" y="686" type="line"/>
      <point x="334" y="367" type="line"/>
      <point x="330" y="367" type="line"/>
      <point x="192" y="686" type="line"/>
      <point x="81" y="686" type="line"/>
      <point x="186" y="440" type="line"/>
      <point x="78" y="440" type="line"/>
      <point x="69" y="376" type="line"/>
      <point x="214" y="376" type="line"/>
      <point x="246" y="303" type="line"/>
      <point x="59" y="303" type="line"/>
      <point x="50" y="239" type="line"/>
      <point x="259" y="239" type="line"/>
      <point x="225" y="0" type="line"/>
      <point x="323" y="0" type="line"/>
      <point x="357" y="239" type="line"/>
      <point x="568" y="239" type="line"/>
      <point x="577" y="303" type="line"/>
      <point x="388" y="303" type="line"/>
      <point x="439" y="376" type="line"/>
      <point x="587" y="376" type="line"/>
      <point x="596" y="440" type="line"/>
      <point x="485" y="440" type="line"/>
      <point x="661" y="686" type="line"/>
    </contour>
  </outline>
</glyph>
<glyph name="dieresis" format="1">
  <advance width="440"/>
  <unicode hex="00A8"/>
  <outline>
    <contour>
      <point x="274" y="731" type="line"/>
      <point x="261" y="633" type="line"/>
      <point x="352" y="633" type="line"/>
      <point x="365" y="731" type="line"/>
    </contour>
    <contour>
      <point x="86" y="731" type="line"/>
      <point x="73" y="633" type="line"/>
      <point x="163" y="633" type="line"/>
      <point x="176" y="731" type="line"/>
    </contour>
    <contour>
      <point x="209" y="511" type="move" name="_top"/>
    </contour>
  </outline>
</glyph>
<glyph name="logicalnot" format="1">
  <advance width="615"/>
  <unicode hex="00AC"/>
  <outline>
    <contour>
      <point x="57" y="453" type="line"/>
      <point x="44" y="360" type="line"/>
      <point x="479" y="360" type="line"/>
      <point x="453" y="174" type="line"/>
      <point x="537" y="174" type="line"/>
      <point x="576" y="453" type="line"/>
    </contour>
  </outline>
</glyph>
<glyph name="plusminus" format="1">
  <advance width="615"/>
  <unicode hex="00B1"/>
  <outline>
    <contour>
      <point x="297" y="511" type="line"/>
      <point x="277" y="364" type="line"/>
      <point x="63" y="364" type="line"/>
      <point x="51" y="280" type="line"/>
      <point x="265" y="280" type="line"/>
      <point x="244" y="134" type="line"/>
      <point x="327" y="134" type="line"/>
      <point x="348" y="280" type="line"/>
      <point x="563" y="280" type="line"/>
      <point x="575" y="364" type="line"/>
      <point x="360" y="364" type="line"/>
      <point x="380" y="511" type="line"/>
    </contour>
    <contour>
      <point x="27" y="83" type="line"/>
      <point x="16" y="0" type="line"/>
      <point x="519" y="0" type="line"/>
      <point x="530" y="83" type="line"/>
    </contour>
  </outline>
</glyph>
<glyph name="twosuperior" format="1">
  <advance width="381"/>
  <unicode hex="00B2"/>
  <outline>
    <contour>
      <point x="166" y="800"/>
      <point x="111" y="732"/>
      <point x="111" y="664" type="curve"/>
      <point x="165" y="664" type="line"/>
      <point x="165" y="715"/>
      <point x="205" y="751"/>
      <point x="252" y="751" type="curve" smooth="yes"/>
      <point x="306" y="751"/>
      <point x="318" y="717"/>
      <point x="318" y="696" type="curve" smooth="yes"/>
      <point x="318" y="669"/>
      <point x="306" y="640"/>
      <point x="263" y="611" type="curve" smooth="yes"/>
      <point x="142" y="528" type="line" smooth="yes"/>
      <point x="122" y="514"/>
      <point x="86" y="483"/>
      <point x="78" y="431" type="curve" smooth="yes"/>
      <point x="76" y="418" type="line"/>
      <point x="335" y="418" type="line"/>
      <point x="341" y="467" type="line"/>
      <point x="145" y="467" type="line"/>
      <point x="145" y="470"/>
      <point x="152" y="477"/>
      <point x="159" y="482" type="curve" smooth="yes"/>
      <point x="287" y="571" type="line" smooth="yes"/>
      <point x="353" y="617"/>
      <point x="372" y="656"/>
      <point x="372" y="704" type="curve" smooth="yes"/>
      <point x="372" y="747"/>
      <point x="342" y="800"/>
      <point x="258" y="800" type="curve" smooth="yes"/>
    </contour>
  </outline>
</glyph>
<glyph name="threesuperior" format="1">
  <advance width="361"/>
  <unicode hex="00B3"/>
  <outline>
    <contour>
      <point x="245" y="800" type="line" smooth="yes"/>
      <point x="173" y="800"/>
      <point x="113" y="761"/>
      <point x="105" y="688" type="curve"/>
      <point x="159" y="688" type="line"/>
      <point x="166" y="731"/>
      <point x="199" y="751"/>
      <point x="238" y="751" type="curve" smooth="yes"/>
      <point x="274" y="751"/>
      <point x="304" y="738"/>
      <point x="304" y="703" type="curve" smooth="yes"/>
      <point x="304" y="656"/>
      <point x="263" y="634"/>
      <point x="220" y="634" type="curve" smooth="yes"/>
      <point x="178" y="634" type="line"/>
      <point x="171" y="585" type="line"/>
      <point x="212" y="585" type="line" smooth="yes"/>
      <point x="253" y="585"/>
      <point x="289" y="573"/>
      <point x="289" y="534" type="curve" smooth="yes"/>
      <point x="289" y="485"/>
      <point x="249" y="461"/>
      <point x="196" y="461" type="curve" smooth="yes"/>
      <point x="149" y="461"/>
      <point x="126" y="478"/>
      <point x="126" y="512" type="curve" smooth="yes"/>
      <point x="126" y="518" type="line" smooth="yes"/>
      <point x="126" y="520"/>
      <point x="127" y="524"/>
      <point x="128" y="529" type="curve"/>
      <point x="74" y="529" type="line"/>
      <point x="73" y="518"/>
      <point x="72" y="512"/>
      <point x="72" y="505" type="curve" smooth="yes"/>
      <point x="72" y="449"/>
      <point x="112" y="412"/>
      <point x="189" y="412" type="curve" smooth="yes"/>
      <point x="195" y="412" type="line" smooth="yes"/>
      <point x="277" y="412"/>
      <point x="342" y="462"/>
      <point x="342" y="536" type="curve" smooth="yes"/>
      <point x="342" y="576"/>
      <point x="321" y="599"/>
      <point x="286" y="610" type="curve"/>
      <point x="286" y="614" type="line"/>
      <point x="325" y="631"/>
      <point x="359" y="659"/>
      <point x="359" y="712" type="curve" smooth="yes"/>
      <point x="359" y="767"/>
      <point x="314" y="800"/>
      <point x="250" y="800" type="curve" smooth="yes"/>
    </contour>
  </outline>
</glyph>
<glyph name="acute" format="1">
  <advance width="333"/>
  <unicode hex="00B4"/>
  <outline>
    <contour>
      <point x="171" y="720" type="line"/>
      <point x="56" y="575" type="line"/>
      <point x="125" y="575" type="line"/>
      <point x="261" y="716" type="line"/>
      <point x="261" y="720" type="line"/>
    </contour>
    <contour>
      <point x="119" y="511" type="move" name="_top"/>
    </contour>
  </outline>
</glyph>
<glyph name="uni00B5" format="1">
  <advance width="613"/>
  <unicode hex="00B5"/>
  <outline>
    <contour>
      <point x="451" y="511" type="line"/>
      <point x="408" y="207" type="line"/>
      <point x="395" y="127"/>
      <point x="322" y="65"/>
      <point x="252" y="65" type="curve" smooth="yes"/>
      <point x="196" y="65"/>
      <point x="159" y="90"/>
      <point x="159" y="155" type="curve"/>
      <point x="158" y="172"/>
      <point x="170" y="261"/>
      <point x="183" y="346" type="curve" smooth="yes"/>
      <point x="207" y="511" type="line"/>
      <point x="113" y="511" type="line"/>
      <point x="18" y="-161" type="line"/>
      <point x="112" y="-161" type="line"/>
      <point x="130" y="-32" type="line"/>
      <point x="130" y="9" type="line"/>
      <point x="155" y="-4"/>
      <point x="185" y="-10"/>
      <point x="221" y="-10" type="curve" smooth="yes"/>
      <point x="294" y="-10"/>
      <point x="358" y="32"/>
      <point x="395" y="74" type="curve"/>
      <point x="395" y="64" type="line" smooth="yes"/>
      <point x="395" y="24"/>
      <point x="412" y="-10"/>
      <point x="471" y="-10" type="curve" smooth="yes"/>
      <point x="507" y="-10"/>
      <point x="535" y="2"/>
      <point x="548" y="10" type="curve"/>
      <point x="557" y="79" type="line"/>
      <point x="546" y="72"/>
      <point x="525" y="65"/>
      <point x="510" y="65" type="curve" smooth="yes"/>
      <point x="497" y="65"/>
      <point x="486" y="73"/>
      <point x="486" y="92" type="curve"/>
      <point x="485" y="95"/>
      <point x="500" y="200"/>
      <point x="515" y="304" type="curve" smooth="yes"/>
      <point x="545" y="511" type="line"/>
    </contour>
  </outline>
</glyph>
<glyph name="periodcentered" format="1">
  <advance width="238"/>
  <unicode hex="00B7"/>
  <outline>
    <contour>
      <point x="75" y="344" type="line"/>
      <point x="60" y="232" type="line"/>
      <point x="161" y="232" type="line"/>
      <point x="176" y="344" type="line"/>
    </contour>
  </outline>
</glyph>
<glyph name="cedilla" format="1">
  <advance width="350"/>
  <unicode hex="00B8"/>
  <outline>
    <contour>
      <point x="156" y="-17" type="line"/>
      <point x="150" y="-60" type="line"/>
      <point x="171" y="-60" type="line" smooth="yes"/>
      <point x="198" y="-60"/>
      <point x="217" y="-72"/>
      <point x="217" y="-95" type="curve" smooth="yes"/>
      <point x="217" y="-131"/>
      <point x="186" y="-146"/>
      <point x="154" y="-146" type="curve" smooth="yes"/>
      <point x="111" y="-146"/>
      <point x="84" y="-131"/>
      <point x="75" y="-126" type="curve"/>
      <point x="59" y="-175" type="line"/>
      <point x="84" y="-190"/>
      <point x="119" y="-197"/>
      <point x="151" y="-197" type="curve" smooth="yes"/>
      <point x="197" y="-197"/>
      <point x="280" y="-176"/>
      <point x="280" y="-90" type="curve" smooth="yes"/>
      <point x="280" y="-32"/>
      <point x="231" y="-17"/>
      <point x="180" y="-17" type="curve" smooth="yes"/>
    </contour>
    <contour>
      <point x="169.5" y="0" type="move" name="_bottom"/>
    </contour>
  </outline>
</glyph>
<glyph name="onesuperior" format="1">
  <advance width="332"/>
  <unicode hex="00B9"/>
  <outline>
    <contour>
      <point x="253" y="796" type="line"/>
      <point x="201" y="775"/>
      <point x="152" y="762"/>
      <point x="116" y="759" type="curve"/>
      <point x="111" y="724" type="line"/>
      <point x="210" y="724" type="line"/>
      <point x="174" y="471" type="line"/>
      <point x="75" y="471" type="line"/>
      <point x="68" y="422" type="line"/>
      <point x="302" y="422" type="line"/>
      <point x="309" y="471" type="line"/>
      <point x="228" y="471" type="line"/>
      <point x="274" y="796" type="line"/>
    </contour>
  </outline>
</glyph>
<glyph name="ordmasculine" format="1">
  <advance width="392"/>
  <unicode hex="00BA"/>
  <outline>
    <contour>
      <point x="124" y="696"/>
      <point x="82" y="593"/>
      <point x="82" y="493" type="curve" smooth="yes"/>
      <point x="82" y="410"/>
      <point x="136" y="373"/>
      <point x="206" y="373" type="curve" smooth="yes"/>
      <point x="334" y="373"/>
      <point x="376" y="476"/>
      <point x="376" y="576" type="curve" smooth="yes"/>
      <point x="376" y="659"/>
      <point x="322" y="696"/>
      <point x="252" y="696" type="curve" smooth="yes"/>
    </contour>
    <contour>
      <point x="286" y="650"/>
      <point x="317" y="627"/>
      <point x="317" y="568" type="curve" smooth="yes"/>
      <point x="317" y="501"/>
      <point x="293" y="419"/>
      <point x="213" y="419" type="curve" smooth="yes"/>
      <point x="170" y="419"/>
      <point x="140" y="442"/>
      <point x="140" y="501" type="curve"/>
      <point x="143" y="567"/>
      <point x="162" y="650"/>
      <point x="245" y="650" type="curve" smooth="yes"/>
    </contour>
  </outline>
</glyph>
<glyph name="onequarter" format="1">
  <advance width="701"/>
  <unicode hex="00BC"/>
  <outline>
    <contour>
      <point x="618" y="686" type="line"/>
      <point x="101" y="0" type="line"/>
      <point x="156" y="0" type="line"/>
      <point x="670" y="686" type="line"/>
    </contour>
    <contour>
      <point x="222" y="684" type="line"/>
      <point x="169" y="663"/>
      <point x="123" y="650"/>
      <point x="86" y="647" type="curve"/>
      <point x="80" y="612" type="line"/>
      <point x="179" y="612" type="line"/>
      <point x="144" y="359" type="line"/>
      <point x="45" y="359" type="line"/>
      <point x="38" y="310" type="line"/>
      <point x="272" y="310" type="line"/>
      <point x="279" y="359" type="line"/>
      <point x="198" y="359" type="line"/>
      <point x="243" y="684" type="line"/>
    </contour>
    <contour>
      <point x="528" y="374" type="line"/>
      <point x="488" y="290"/>
      <point x="437" y="212"/>
      <point x="380" y="141" type="curve"/>
      <point x="373" y="91" type="line"/>
      <point x="546" y="91" type="line"/>
      <point x="533" y="0" type="line"/>
      <point x="587" y="0" type="line"/>
      <point x="600" y="91" type="line"/>
      <point x="646" y="91" type="line"/>
      <point x="653" y="140" type="line"/>
      <point x="607" y="140" type="line"/>
      <point x="632" y="319" type="line"/>
      <point x="607" y="319" type="line"/>
      <point x="595" y="291"/>
      <point x="585" y="272"/>
      <point x="568" y="245" type="curve"/>
      <point x="553" y="140" type="line"/>
      <point x="430" y="140" type="line"/>
      <point x="459" y="169"/>
      <point x="543" y="276"/>
      <point x="583" y="374" type="curve"/>
    </contour>
  </outline>
</glyph>
<glyph name="onehalf" format="1">
  <advance width="727"/>
  <unicode hex="00BD"/>
  <outline>
    <contour>
      <point x="599" y="686" type="line"/>
      <point x="82" y="0" type="line"/>
      <point x="137" y="0" type="line"/>
      <point x="651" y="686" type="line"/>
    </contour>
    <contour>
      <point x="220" y="684" type="line"/>
      <point x="167" y="663"/>
      <point x="121" y="650"/>
      <point x="84" y="647" type="curve"/>
      <point x="78" y="612" type="line"/>
      <point x="177" y="612" type="line"/>
      <point x="142" y="359" type="line"/>
      <point x="43" y="359" type="line"/>
      <point x="36" y="310" type="line"/>
      <point x="270" y="310" type="line"/>
      <point x="277" y="359" type="line"/>
      <point x="196" y="359" type="line"/>
      <point x="241" y="684" type="line"/>
    </contour>
    <contour>
      <point x="487" y="382"/>
      <point x="432" y="314"/>
      <point x="432" y="246" type="curve"/>
      <point x="486" y="246" type="line"/>
      <point x="486" y="297"/>
      <point x="526" y="333"/>
      <point x="573" y="333" type="curve" smooth="yes"/>
      <point x="627" y="333"/>
      <point x="639" y="299"/>
      <point x="639" y="278" type="curve" smooth="yes"/>
      <point x="639" y="251"/>
      <point x="627" y="222"/>
      <point x="584" y="193" type="curve" smooth="yes"/>
      <point x="463" y="110" type="line" smooth="yes"/>
      <point x="443" y="96"/>
      <point x="407" y="65"/>
      <point x="399" y="13" type="curve" smooth="yes"/>
      <point x="397" y="0" type="line"/>
      <point x="656" y="0" type="line"/>
      <point x="662" y="49" type="line"/>
      <point x="466" y="49" type="line"/>
      <point x="466" y="52"/>
      <point x="473" y="59"/>
      <point x="480" y="64" type="curve" smooth="yes"/>
      <point x="608" y="153" type="line" smooth="yes"/>
      <point x="674" y="199"/>
      <point x="693" y="238"/>
      <point x="693" y="286" type="curve" smooth="yes"/>
      <point x="693" y="329"/>
      <point x="663" y="382"/>
      <point x="579" y="382" type="curve" smooth="yes"/>
    </contour>
  </outline>
</glyph>
<glyph name="threequarters" format="1">
  <advance width="698"/>
  <unicode hex="00BE"/>
  <outline>
    <contour>
      <point x="619" y="686" type="line"/>
      <point x="102" y="0" type="line"/>
      <point x="157" y="0" type="line"/>
      <point x="671" y="686" type="line"/>
    </contour>
    <contour>
      <point x="219" y="686" type="line" smooth="yes"/>
      <point x="147" y="686"/>
      <point x="87" y="647"/>
      <point x="79" y="574" type="curve"/>
      <point x="133" y="574" type="line"/>
      <point x="140" y="617"/>
      <point x="173" y="637"/>
      <point x="212" y="637" type="curve" smooth="yes"/>
      <point x="248" y="637"/>
      <point x="278" y="624"/>
      <point x="278" y="589" type="curve" smooth="yes"/>
      <point x="278" y="542"/>
      <point x="237" y="520"/>
      <point x="194" y="520" type="curve" smooth="yes"/>
      <point x="152" y="520" type="line"/>
      <point x="145" y="471" type="line"/>
      <point x="186" y="471" type="line" smooth="yes"/>
      <point x="227" y="471"/>
      <point x="263" y="459"/>
      <point x="263" y="420" type="curve" smooth="yes"/>
      <point x="263" y="371"/>
      <point x="223" y="347"/>
      <point x="170" y="347" type="curve" smooth="yes"/>
      <point x="123" y="347"/>
      <point x="100" y="364"/>
      <point x="100" y="398" type="curve" smooth="yes"/>
      <point x="100" y="404" type="line" smooth="yes"/>
      <point x="100" y="406"/>
      <point x="101" y="410"/>
      <point x="102" y="415" type="curve"/>
      <point x="48" y="415" type="line"/>
      <point x="47" y="404"/>
      <point x="46" y="398"/>
      <point x="46" y="391" type="curve" smooth="yes"/>
      <point x="46" y="335"/>
      <point x="86" y="298"/>
      <point x="163" y="298" type="curve" smooth="yes"/>
      <point x="169" y="298" type="line" smooth="yes"/>
      <point x="251" y="298"/>
      <point x="316" y="348"/>
      <point x="316" y="422" type="curve" smooth="yes"/>
      <point x="316" y="462"/>
      <point x="295" y="485"/>
      <point x="260" y="496" type="curve"/>
      <point x="260" y="500" type="line"/>
      <point x="299" y="517"/>
      <point x="333" y="545"/>
      <point x="333" y="598" type="curve" smooth="yes"/>
      <point x="333" y="653"/>
      <point x="288" y="686"/>
      <point x="224" y="686" type="curve" smooth="yes"/>
    </contour>
    <contour>
      <point x="524" y="374" type="line"/>
      <point x="484" y="290"/>
      <point x="433" y="212"/>
      <point x="376" y="141" type="curve"/>
      <point x="369" y="91" type="line"/>
      <point x="542" y="91" type="line"/>
      <point x="529" y="0" type="line"/>
      <point x="583" y="0" type="line"/>
      <point x="596" y="91" type="line"/>
      <point x="642" y="91" type="line"/>
      <point x="649" y="140" type="line"/>
      <point x="603" y="140" type="line"/>
      <point x="628" y="319" type="line"/>
      <point x="603" y="319" type="line"/>
      <point x="591" y="291"/>
      <point x="581" y="272"/>
      <point x="564" y="245" type="curve"/>
      <point x="549" y="140" type="line"/>
      <point x="426" y="140" type="line"/>
      <point x="455" y="169"/>
      <point x="539" y="276"/>
      <point x="579" y="374" type="curve"/>
    </contour>
  </outline>
</glyph>
<glyph name="questiondown" format="1">
  <advance width="494"/>
  <unicode hex="00BF"/>
  <outline>
    <contour>
      <point x="194" y="326" type="line"/>
      <point x="188" y="277" type="line" smooth="yes"/>
      <point x="177" y="186"/>
      <point x="-8" y="164"/>
      <point x="-7" y="-13" type="curve" smooth="yes"/>
      <point x="-7" y="-78"/>
      <point x="26" y="-185"/>
      <point x="178" y="-185" type="curve" smooth="yes"/>
      <point x="184" y="-185" type="line" smooth="yes"/>
      <point x="346" y="-185"/>
      <point x="434" y="-74"/>
      <point x="434" y="53" type="curve"/>
      <point x="336" y="53" type="line"/>
      <point x="335" y="46"/>
      <point x="335" y="29"/>
      <point x="333" y="16" type="curve" smooth="yes"/>
      <point x="327" y="-16"/>
      <point x="301" y="-96"/>
      <point x="197" y="-96" type="curve" smooth="yes"/>
      <point x="117" y="-96"/>
      <point x="93" y="-42"/>
      <point x="93" y="1" type="curve" smooth="yes"/>
      <point x="93" y="129"/>
      <point x="269" y="146"/>
      <point x="285" y="262" type="curve" smooth="yes"/>
      <point x="294" y="326" type="line"/>
    </contour>
    <contour>
      <point x="218" y="511" type="line"/>
      <point x="203" y="400" type="line"/>
      <point x="307" y="400" type="line"/>
      <point x="322" y="511" type="line"/>
    </contour>
  </outline>
</glyph>
<glyph name="Aacute" format="1">
  <advance width="650"/>
  <unicode hex="00C1"/>
  <outline>
    <contour>
      <point x="328" y="686" type="line"/>
      <point x="-36" y="0" type="line"/>
      <point x="58" y="0" type="line"/>
      <point x="136" y="149" type="line"/>
      <point x="464" y="149" type="line"/>
      <point x="501" y="0" type="line"/>
      <point x="607" y="0" type="line"/>
      <point x="436" y="686" type="line"/>
    </contour>
    <contour>
      <point x="443" y="238" type="line"/>
      <point x="184" y="238" type="line"/>
      <point x="357" y="568" type="line"/>
      <point x="363" y="568" type="line"/>
    </contour>
    <contour>
      <point x="465" y="895" type="line"/>
      <point x="350" y="750" type="line"/>
      <point x="419" y="750" type="line"/>
      <point x="555" y="891" type="line"/>
      <point x="555" y="895" type="line"/>
    </contour>
  </outline>
</glyph>
<glyph name="Acircumflex" format="1">
  <advance width="650"/>
  <unicode hex="00C2"/>
  <outline>
    <contour>
      <point x="328" y="686" type="line"/>
      <point x="-36" y="0" type="line"/>
      <point x="58" y="0" type="line"/>
      <point x="136" y="149" type="line"/>
      <point x="464" y="149" type="line"/>
      <point x="501" y="0" type="line"/>
      <point x="607" y="0" type="line"/>
      <point x="436" y="686" type="line"/>
    </contour>
    <contour>
      <point x="443" y="238" type="line"/>
      <point x="184" y="238" type="line"/>
      <point x="357" y="568" type="line"/>
      <point x="363" y="568" type="line"/>
    </contour>
    <contour>
      <point x="360" y="895" type="line"/>
      <point x="203" y="750" type="line"/>
      <point x="283" y="750" type="line"/>
      <point x="391" y="839" type="line"/>
      <point x="472" y="750" type="line"/>
      <point x="552" y="750" type="line"/>
      <point x="438" y="895" type="line"/>
    </contour>
  </outline>
</glyph>
<glyph name="Adieresis" format="1">
  <advance width="650"/>
  <unicode hex="00C4"/>
  <outline>
    <contour>
      <point x="328" y="686" type="line"/>
      <point x="-36" y="0" type="line"/>
      <point x="58" y="0" type="line"/>
      <point x="136" y="149" type="line"/>
      <point x="464" y="149" type="line"/>
      <point x="501" y="0" type="line"/>
      <point x="607" y="0" type="line"/>
      <point x="436" y="686" type="line"/>
    </contour>
    <contour>
      <point x="443" y="238" type="line"/>
      <point x="184" y="238" type="line"/>
      <point x="357" y="568" type="line"/>
      <point x="363" y="568" type="line"/>
    </contour>
    <contour>
      <point x="259" y="848" type="line"/>
      <point x="246" y="750" type="line"/>
      <point x="336" y="750" type="line"/>
      <point x="349" y="848" type="line"/>
    </contour>
    <contour>
      <point x="447" y="848" type="line"/>
      <point x="434" y="750" type="line"/>
      <point x="525" y="750" type="line"/>
      <point x="538" y="848" type="line"/>
    </contour>
  </outline>
</glyph>
<glyph name="AE" format="1">
  <advance width="981"/>
  <unicode hex="00C6"/>
  <outline>
    <contour>
      <point x="426" y="686" type="line"/>
      <point x="-33" y="0" type="line"/>
      <point x="59" y="0" type="line"/>
      <point x="158" y="149" type="line"/>
      <point x="486" y="149" type="line"/>
      <point x="502" y="0" type="line"/>
      <point x="896" y="0" type="line"/>
      <point x="896" y="89" type="line"/>
      <point x="598" y="89" type="line"/>
      <point x="574" y="306" type="line"/>
      <point x="888" y="306" type="line"/>
      <point x="901" y="395" type="line"/>
      <point x="565" y="395" type="line"/>
      <point x="543" y="597" type="line"/>
      <point x="961" y="597" type="line"/>
      <point x="987" y="686" type="line"/>
    </contour>
    <contour>
      <point x="478" y="238" type="line"/>
      <point x="219" y="238" type="line"/>
      <point x="438" y="568" type="line"/>
      <point x="444" y="568" type="line"/>
    </contour>
    <contour>
      <point x="541" y="686" type="move" name="top"/>
    </contour>
  </outline>
</glyph>
<glyph name="Egrave" format="1">
  <advance width="592"/>
  <unicode hex="00C8"/>
  <outline>
    <contour>
      <point x="148" y="686" type="line"/>
      <point x="51" y="0" type="line"/>
      <point x="507" y="0" type="line"/>
      <point x="507" y="89" type="line"/>
      <point x="162" y="89" type="line"/>
      <point x="192" y="306" type="line"/>
      <point x="499" y="306" type="line"/>
      <point x="512" y="395" type="line"/>
      <point x="205" y="395" type="line"/>
      <point x="233" y="597" type="line"/>
      <point x="572" y="597" type="line"/>
      <point x="598" y="686" type="line"/>
    </contour>
    <contour>
      <point x="258" y="895" type="line"/>
      <point x="256" y="892" type="line"/>
      <point x="351" y="750" type="line"/>
      <point x="421" y="750" type="line"/>
      <point x="347" y="895" type="line"/>
    </contour>
  </outline>
</glyph>
<glyph name="Eacute" format="1">
  <advance width="592"/>
  <unicode hex="00C9"/>
  <outline>
    <contour>
      <point x="148" y="686" type="line"/>
      <point x="51" y="0" type="line"/>
      <point x="507" y="0" type="line"/>
      <point x="507" y="89" type="line"/>
      <point x="162" y="89" type="line"/>
      <point x="192" y="306" type="line"/>
      <point x="499" y="306" type="line"/>
      <point x="512" y="395" type="line"/>
      <point x="205" y="395" type="line"/>
      <point x="233" y="597" type="line"/>
      <point x="572" y="597" type="line"/>
      <point x="598" y="686" type="line"/>
    </contour>
    <contour>
      <point x="448" y="895" type="line"/>
      <point x="333" y="750" type="line"/>
      <point x="402" y="750" type="line"/>
      <point x="538" y="891" type="line"/>
      <point x="538" y="895" type="line"/>
    </contour>
  </outline>
</glyph>
<glyph name="Ecircumflex" format="1">
  <advance width="592"/>
  <unicode hex="00CA"/>
  <outline>
    <contour>
      <point x="148" y="686" type="line"/>
      <point x="51" y="0" type="line"/>
      <point x="507" y="0" type="line"/>
      <point x="507" y="89" type="line"/>
      <point x="162" y="89" type="line"/>
      <point x="192" y="306" type="line"/>
      <point x="499" y="306" type="line"/>
      <point x="512" y="395" type="line"/>
      <point x="205" y="395" type="line"/>
      <point x="233" y="597" type="line"/>
      <point x="572" y="597" type="line"/>
      <point x="598" y="686" type="line"/>
    </contour>
    <contour>
      <point x="362" y="895" type="line"/>
      <point x="205" y="750" type="line"/>
      <point x="285" y="750" type="line"/>
      <point x="393" y="839" type="line"/>
      <point x="474" y="750" type="line"/>
      <point x="554" y="750" type="line"/>
      <point x="440" y="895" type="line"/>
    </contour>
  </outline>
</glyph>
<glyph name="Edieresis" format="1">
  <advance width="592"/>
  <unicode hex="00CB"/>
  <outline>
    <contour>
      <point x="148" y="686" type="line"/>
      <point x="51" y="0" type="line"/>
      <point x="507" y="0" type="line"/>
      <point x="507" y="89" type="line"/>
      <point x="162" y="89" type="line"/>
      <point x="192" y="306" type="line"/>
      <point x="499" y="306" type="line"/>
      <point x="512" y="395" type="line"/>
      <point x="205" y="395" type="line"/>
      <point x="233" y="597" type="line"/>
      <point x="572" y="597" type="line"/>
      <point x="598" y="686" type="line"/>
    </contour>
    <contour>
      <point x="250" y="848" type="line"/>
      <point x="237" y="750" type="line"/>
      <point x="327" y="750" type="line"/>
      <point x="340" y="848" type="line"/>
    </contour>
    <contour>
      <point x="438" y="848" type="line"/>
      <point x="425" y="750" type="line"/>
      <point x="516" y="750" type="line"/>
      <point x="529" y="848" type="line"/>
    </contour>
  </outline>
</glyph>
<glyph name="Idieresis" format="1">
  <advance width="365"/>
  <unicode hex="00CF"/>
  <outline>
    <contour>
      <point x="109" y="686" type="line"/>
      <point x="96" y="597" type="line"/>
      <point x="176" y="597" type="line"/>
      <point x="105" y="89" type="line"/>
      <point x="25" y="89" type="line"/>
      <point x="12" y="0" type="line"/>
      <point x="270" y="0" type="line"/>
      <point x="283" y="89" type="line"/>
      <point x="203" y="89" type="line"/>
      <point x="274" y="597" type="line"/>
      <point x="354" y="597" type="line"/>
      <point x="367" y="686" type="line"/>
    </contour>
    <contour>
      <point x="120" y="848" type="line"/>
      <point x="107" y="750" type="line"/>
      <point x="197" y="750" type="line"/>
      <point x="210" y="848" type="line"/>
    </contour>
    <contour>
      <point x="308" y="848" type="line"/>
      <point x="295" y="750" type="line"/>
      <point x="386" y="750" type="line"/>
      <point x="399" y="848" type="line"/>
    </contour>
  </outline>
</glyph>
<glyph name="Ntilde" format="1">
  <advance width="694"/>
  <unicode hex="00D1"/>
  <outline>
    <contour>
      <point x="569" y="686" type="line"/>
      <point x="499" y="191" type="line"/>
      <point x="496" y="190" type="line"/>
      <point x="234" y="686" type="line"/>
      <point x="148" y="686" type="line"/>
      <point x="51" y="0" type="line"/>
      <point x="140" y="0" type="line"/>
      <point x="211" y="501" type="line"/>
      <point x="214" y="502" type="line"/>
      <point x="478" y="0" type="line"/>
      <point x="561" y="0" type="line"/>
      <point x="658" y="686" type="line"/>
    </contour>
    <contour>
      <point x="571" y="854" type="line"/>
      <point x="561" y="831"/>
      <point x="541" y="819"/>
      <point x="511" y="819" type="curve" smooth="yes"/>
      <point x="458" y="819"/>
      <point x="412" y="854"/>
      <point x="348" y="854" type="curve" smooth="yes"/>
      <point x="270" y="854"/>
      <point x="230" y="795"/>
      <point x="222" y="750" type="curve"/>
      <point x="270" y="750" type="line"/>
      <point x="280" y="773"/>
      <point x="300" y="784"/>
      <point x="330" y="784" type="curve" smooth="yes"/>
      <point x="384" y="784"/>
      <point x="430" y="750"/>
      <point x="494" y="750" type="curve" smooth="yes"/>
      <point x="572" y="750"/>
      <point x="613" y="806"/>
      <point x="621" y="854" type="curve"/>
    </contour>
  </outline>
</glyph>
<glyph name="Ugrave" format="1">
  <advance width="682"/>
  <unicode hex="00D9"/>
  <outline>
    <contour>
      <point x="552" y="686" type="line"/>
      <point x="487" y="221" type="line" smooth="yes"/>
      <point x="475" y="137"/>
      <point x="408" y="79"/>
      <point x="311" y="79" type="curve" smooth="yes"/>
      <point x="223" y="79"/>
      <point x="173" y="129"/>
      <point x="173" y="200" type="curve" smooth="yes"/>
      <point x="173" y="205"/>
      <point x="173" y="209"/>
      <point x="176" y="228" type="curve" smooth="yes"/>
      <point x="182" y="272" type="line" smooth="yes"/>
      <point x="190" y="333"/>
      <point x="208" y="450"/>
      <point x="240" y="686" type="curve"/>
      <point x="142" y="686" type="line"/>
      <point x="78" y="218"/>
      <point x="74" y="201"/>
      <point x="74" y="180" type="curve" smooth="yes"/>
      <point x="74" y="63"/>
      <point x="156" y="-10"/>
      <point x="292" y="-10" type="curve" smooth="yes"/>
      <point x="305" y="-10" type="line" smooth="yes"/>
      <point x="467" y="-10"/>
      <point x="565" y="79"/>
      <point x="585" y="219" type="curve" smooth="yes"/>
      <point x="650" y="686" type="line"/>
    </contour>
    <contour>
      <point x="279" y="895" type="line"/>
      <point x="277" y="892" type="line"/>
      <point x="372" y="750" type="line"/>
      <point x="442" y="750" type="line"/>
      <point x="368" y="895" type="line"/>
    </contour>
  </outline>
</glyph>
<glyph name="germandbls" format="1">
  <advance width="614"/>
  <unicode hex="00DF"/>
  <outline>
    <contour>
      <point x="251" y="728"/>
      <point x="156" y="647"/>
      <point x="135" y="511" type="curve"/>
      <point x="77" y="511" type="line"/>
      <point x="66" y="436" type="line"/>
      <point x="124" y="436" type="line"/>
      <point x="54" y="-66" type="line"/>
      <point x="148" y="-66" type="line"/>
      <point x="229" y="513" type="line" smooth="yes"/>
      <point x="241" y="597"/>
      <point x="300" y="653"/>
      <point x="382" y="653" type="curve" smooth="yes"/>
      <point x="446" y="653"/>
      <point x="483" y="617"/>
      <point x="483" y="557" type="curve" smooth="yes"/>
      <point x="483" y="484"/>
      <point x="419" y="420"/>
      <point x="342" y="420" type="curve" smooth="yes"/>
      <point x="277" y="420" type="line"/>
      <point x="267" y="346" type="line"/>
      <point x="340" y="346" type="line" smooth="yes"/>
      <point x="411" y="346"/>
      <point x="461" y="296"/>
      <point x="461" y="232" type="curve" smooth="yes"/>
      <point x="461" y="145"/>
      <point x="384" y="75"/>
      <point x="302" y="75" type="curve" smooth="yes"/>
      <point x="229" y="75" type="line"/>
      <point x="218" y="0" type="line"/>
      <point x="301" y="0" type="line" smooth="yes"/>
      <point x="437" y="0"/>
      <point x="555" y="91"/>
      <point x="555" y="235" type="curve" smooth="yes"/>
      <point x="555" y="303"/>
      <point x="517" y="364"/>
      <point x="457" y="387" type="curve"/>
      <point x="456" y="391" type="line"/>
      <point x="528" y="418"/>
      <point x="579" y="482"/>
      <point x="579" y="571" type="curve" smooth="yes"/>
      <point x="579" y="670"/>
      <point x="497" y="728"/>
      <point x="392" y="728" type="curve" smooth="yes"/>
    </contour>
  </outline>
</glyph>
<glyph name="igrave" format="1">
  <advance width="261"/>
  <unicode hex="00EC"/>
  <outline>
    <contour>
      <point x="114" y="511" type="line"/>
      <point x="43" y="0" type="line"/>
      <point x="137" y="0" type="line"/>
      <point x="208" y="511" type="line"/>
    </contour>
    <contour>
      <point x="37" y="720" type="line"/>
      <point x="35" y="717" type="line"/>
      <point x="130" y="575" type="line"/>
      <point x="200" y="575" type="line"/>
      <point x="126" y="720" type="line"/>
    </contour>
  </outline>
</glyph>
<glyph name="idieresis" format="1">
  <advance width="261"/>
  <unicode hex="00EF"/>
  <outline>
    <contour>
      <point x="114" y="511" type="line"/>
      <point x="43" y="0" type="line"/>
      <point x="137" y="0" type="line"/>
      <point x="208" y="511" type="line"/>
    </contour>
    <contour>
      <point x="46" y="719" type="line"/>
      <point x="33" y="621" type="line"/>
      <point x="123" y="621" type="line"/>
      <point x="136" y="719" type="line"/>
    </contour>
    <contour>
      <point x="234" y="719" type="line"/>
      <point x="221" y="621" type="line"/>
      <point x="312" y="621" type="line"/>
      <point x="325" y="719" type="line"/>
    </contour>
  </outline>
</glyph>
<glyph name="odieresis" format="1">
  <advance width="576"/>
  <unicode hex="00F6"/>
  <outline>
    <contour>
      <point x="109" y="521"/>
      <point x="41" y="351"/>
      <point x="41" y="187" type="curve" smooth="yes"/>
      <point x="41" y="54"/>
      <point x="129" y="-10"/>
      <point x="245" y="-10" type="curve" smooth="yes"/>
      <point x="456" y="-10"/>
      <point x="524" y="159"/>
      <point x="524" y="324" type="curve" smooth="yes"/>
      <point x="524" y="457"/>
      <point x="436" y="521"/>
      <point x="320" y="521" type="curve" smooth="yes"/>
    </contour>
    <contour>
      <point x="377" y="446"/>
      <point x="428" y="406"/>
      <point x="428" y="310" type="curve" smooth="yes"/>
      <point x="428" y="201"/>
      <point x="387" y="65"/>
      <point x="256" y="65" type="curve" smooth="yes"/>
      <point x="188" y="65"/>
      <point x="136" y="105"/>
      <point x="136" y="200" type="curve" smooth="yes"/>
      <point x="136" y="309"/>
      <point x="173" y="446"/>
      <point x="309" y="446" type="curve" smooth="yes"/>
    </contour>
    <contour>
      <point x="205" y="719" type="line"/>
      <point x="192" y="621" type="line"/>
      <point x="282" y="621" type="line"/>
      <point x="295" y="719" type="line"/>
    </contour>
    <contour>
      <point x="393" y="719" type="line"/>
      <point x="380" y="621" type="line"/>
      <point x="471" y="621" type="line"/>
      <point x="484" y="719" type="line"/>
    </contour>
  </outline>
</glyph>
<glyph name="yacute" format="1">
  <advance width="510"/>
  <unicode hex="00FD"/>
  <outline>
    <contour>
      <point x="437" y="511" type="line"/>
      <point x="239" y="134" type="line"/>
      <point x="235" y="134" type="line"/>
      <point x="141" y="511" type="line"/>
      <point x="42" y="511" type="line"/>
      <point x="169" y="5" type="line"/>
      <point x="124" y="-96"/>
      <point x="73" y="-109"/>
      <point x="49" y="-109" type="curve" smooth="yes"/>
      <point x="28" y="-109"/>
      <point x="4" y="-102"/>
      <point x="-9" y="-95" type="curve"/>
      <point x="-19" y="-172" type="line"/>
      <point x="0" y="-181"/>
      <point x="23" y="-186"/>
      <point x="52" y="-186" type="curve" smooth="yes"/>
      <point x="145" y="-186"/>
      <point x="210" y="-92"/>
      <point x="269" y="20" type="curve" smooth="yes"/>
      <point x="529" y="511" type="line"/>
    </contour>
    <contour>
      <point x="369" y="720" type="line"/>
      <point x="254" y="575" type="line"/>
      <point x="323" y="575" type="line"/>
      <point x="459" y="716" type="line"/>
      <point x="459" y="720" type="line"/>
    </contour>
  </outline>
</glyph>
<glyph name="thorn" format="1">
  <advance width="582"/>
  <unicode hex="00FE"/>
  <outline>
    <contour>
      <point x="144" y="720" type="line"/>
      <point x="17" y="-181" type="line"/>
      <point x="111" y="-181" type="line"/>
      <point x="146" y="65" type="line"/>
      <point x="170" y="21"/>
      <point x="217" y="-10"/>
      <point x="289" y="-10" type="curve" smooth="yes"/>
      <point x="469" y="-10"/>
      <point x="531" y="184"/>
      <point x="531" y="320" type="curve" smooth="yes"/>
      <point x="531" y="459"/>
      <point x="456" y="521"/>
      <point x="357" y="521" type="curve" smooth="yes"/>
      <point x="293" y="521"/>
      <point x="241" y="498"/>
      <point x="201" y="455" type="curve"/>
      <point x="238" y="720" type="line"/>
    </contour>
    <contour>
      <point x="394" y="446"/>
      <point x="438" y="414"/>
      <point x="438" y="317" type="curve" smooth="yes"/>
      <point x="438" y="210"/>
      <point x="402" y="65"/>
      <point x="276" y="65" type="curve" smooth="yes"/>
      <point x="209" y="65"/>
      <point x="167" y="97"/>
      <point x="167" y="193" type="curve" smooth="yes"/>
      <point x="167" y="376"/>
      <point x="241" y="446"/>
      <point x="329" y="446" type="curve" smooth="yes"/>
    </contour>
  </outline>
</glyph>
<glyph name="Lslash" format="1">
  <advance width="534"/>
  <unicode hex="0141"/>
  <outline>
    <contour>
      <point x="151" y="686" type="line"/>
      <point x="110" y="395" type="line"/>
      <point x="43" y="364" type="line"/>
      <point x="33" y="293" type="line"/>
      <point x="100" y="324" type="line"/>
      <point x="54" y="0" type="line"/>
      <point x="480" y="0" type="line"/>
      <point x="480" y="89" type="line"/>
      <point x="165" y="89" type="line"/>
      <point x="205" y="374" type="line"/>
      <point x="354" y="446" type="line"/>
      <point x="364" y="517" type="line"/>
      <point x="215" y="445" type="line"/>
      <point x="249" y="686" type="line"/>
    </contour>
  </outline>
</glyph>
<glyph name="lslash" format="1">
  <advance width="297"/>
  <unicode hex="0142"/>
  <outline>
    <contour>
      <point x="161" y="720" type="line"/>
      <point x="115" y="392" type="line"/>
      <point x="27" y="351" type="line"/>
      <point x="18" y="281" type="line"/>
      <point x="105" y="322" type="line"/>
      <point x="60" y="0" type="line"/>
      <point x="154" y="0" type="line"/>
      <point x="206" y="370" type="line"/>
      <point x="294" y="411" type="line"/>
      <point x="304" y="481" type="line"/>
      <point x="216" y="440" type="line"/>
      <point x="255" y="720" type="line"/>
    </contour>
  </outline>
</glyph>
<glyph name="oe" format="1">
  <advance width="933"/>
  <unicode hex="0153"/>
  <outline>
    <contour>
      <point x="691" y="521" type="line" smooth="yes"/>
      <point x="606" y="521"/>
      <point x="541" y="488"/>
      <point x="496" y="436" type="curve"/>
      <point x="461" y="493"/>
      <point x="397" y="521"/>
      <point x="320" y="521" type="curve" smooth="yes"/>
      <point x="109" y="521"/>
      <point x="41" y="351"/>
      <point x="41" y="187" type="curve" smooth="yes"/>
      <point x="41" y="54"/>
      <point x="129" y="-10"/>
      <point x="245" y="-10" type="curve" smooth="yes"/>
      <point x="338" y="-10"/>
      <point x="404" y="23"/>
      <point x="448" y="75" type="curve"/>
      <point x="481" y="19"/>
      <point x="540" y="-10"/>
      <point x="619" y="-10" type="curve" smooth="yes"/>
      <point x="623" y="-10" type="line" smooth="yes"/>
      <point x="760" y="-10"/>
      <point x="848" y="66"/>
      <point x="865" y="190" type="curve"/>
      <point x="776" y="190" type="line"/>
      <point x="770" y="157"/>
      <point x="746" y="65"/>
      <point x="633" y="65" type="curve" smooth="yes"/>
      <point x="545" y="65"/>
      <point x="512" y="123"/>
      <point x="512" y="202" type="curve" smooth="yes"/>
      <point x="512" y="213"/>
      <point x="513" y="223"/>
      <point x="514" y="234" type="curve"/>
      <point x="871" y="234" type="line"/>
      <point x="881" y="294"/>
      <point x="884" y="321"/>
      <point x="884" y="333" type="curve" smooth="yes"/>
      <point x="884" y="344" type="line" smooth="yes"/>
      <point x="884" y="455"/>
      <point x="811" y="521"/>
      <point x="698" y="521" type="curve" smooth="yes"/>
    </contour>
    <contour>
      <point x="377" y="446"/>
      <point x="428" y="406"/>
      <point x="428" y="310" type="curve" smooth="yes"/>
      <point x="428" y="201"/>
      <point x="387" y="65"/>
      <point x="256" y="65" type="curve" smooth="yes"/>
      <point x="188" y="65"/>
      <point x="136" y="105"/>
      <point x="136" y="200" type="curve"/>
      <point x="144" y="309"/>
      <point x="172" y="446"/>
      <point x="309" y="446" type="curve" smooth="yes"/>
    </contour>
    <contour>
      <point x="746" y="446"/>
      <point x="792" y="411"/>
      <point x="792" y="343" type="curve" smooth="yes"/>
      <point x="792" y="335"/>
      <point x="792" y="327"/>
      <point x="789" y="307" type="curve"/>
      <point x="527" y="307" type="line"/>
      <point x="550" y="400"/>
      <point x="607" y="446"/>
      <point x="683" y="446" type="curve" smooth="yes"/>
    </contour>
    <contour>
      <point x="467" y="511" type="move" name="top"/>
    </contour>
  </outline>
</glyph>
<glyph name="Ydieresis" format="1">
  <advance width="570"/>
  <unicode hex="0178"/>
  <outline>
    <contour>
      <point x="528" y="686" type="line"/>
      <point x="302" y="367" type="line"/>
      <point x="298" y="367" type="line"/>
      <point x="160" y="686" type="line"/>
      <point x="49" y="686" type="line"/>
      <point x="231" y="265" type="line"/>
      <point x="193" y="0" type="line"/>
      <point x="291" y="0" type="line"/>
      <point x="329" y="265" type="line"/>
      <point x="629" y="686" type="line"/>
    </contour>
    <contour>
      <point x="226" y="847" type="line"/>
      <point x="213" y="749" type="line"/>
      <point x="303" y="749" type="line"/>
      <point x="316" y="847" type="line"/>
    </contour>
    <contour>
      <point x="414" y="847" type="line"/>
      <point x="401" y="749" type="line"/>
      <point x="492" y="749" type="line"/>
      <point x="505" y="847" type="line"/>
    </contour>
  </outline>
</glyph>
<glyph name="Zcaron" format="1">
  <advance width="595"/>
  <unicode hex="017D"/>
  <outline>
    <contour>
      <point x="112" y="686" type="line"/>
      <point x="99" y="597" type="line"/>
      <point x="440" y="597" type="line"/>
      <point x="-3" y="38" type="line"/>
      <point x="-9" y="0" type="line"/>
      <point x="514" y="0" type="line"/>
      <point x="527" y="89" type="line"/>
      <point x="153" y="89" type="line"/>
      <point x="597" y="648" type="line"/>
      <point x="603" y="686" type="line"/>
    </contour>
    <contour>
      <point x="471" y="895" type="line"/>
      <point x="364" y="806" type="line"/>
      <point x="282" y="895" type="line"/>
      <point x="202" y="895" type="line"/>
      <point x="317" y="750" type="line"/>
      <point x="395" y="750" type="line"/>
      <point x="551" y="895" type="line"/>
    </contour>
  </outline>
</glyph>
<glyph name="circumflex" format="1">
  <advance width="536"/>
  <unicode hex="02C6"/>
  <outline>
    <contour>
      <point x="237" y="720" type="line"/>
      <point x="80" y="575" type="line"/>
      <point x="160" y="575" type="line"/>
      <point x="268" y="664" type="line"/>
      <point x="349" y="575" type="line"/>
      <point x="429" y="575" type="line"/>
      <point x="315" y="720" type="line"/>
    </contour>
    <contour>
      <point x="254.5" y="511" type="move" name="_top"/>
    </contour>
  </outline>
</glyph>
<glyph name="caron" format="1">
  <advance width="536"/>
  <unicode hex="02C7"/>
  <outline>
    <contour>
      <point x="370" y="720" type="line"/>
      <point x="263" y="631" type="line"/>
      <point x="181" y="720" type="line"/>
      <point x="101" y="720" type="line"/>
      <point x="216" y="575" type="line"/>
      <point x="294" y="575" type="line"/>
      <point x="450" y="720" type="line"/>
    </contour>
    <contour>
      <point x="256" y="511" type="move" name="_top"/>
    </contour>
  </outline>
</glyph>
<glyph name="hungarumlaut" format="1">
  <advance width="442"/>
  <unicode hex="02DD"/>
  <outline>
    <contour>
      <point x="309" y="720" type="line"/>
      <point x="194" y="575" type="line"/>
      <point x="264" y="575" type="line"/>
      <point x="399" y="715" type="line"/>
      <point x="399" y="720" type="line"/>
    </contour>
    <contour>
      <point x="155" y="720" type="line"/>
      <point x="39" y="575" type="line"/>
      <point x="109" y="575" type="line"/>
      <point x="244" y="715" type="line"/>
      <point x="244" y="720" type="line"/>
    </contour>
    <contour>
      <point x="169" y="511" type="move" name="_top"/>
    </contour>
  </outline>
</glyph>
<glyph name="uni0326" format="1">
  <advance width="237"/>
  <unicode hex="0326"/>
  <outline>
    <contour>
      <point x="23" y="-40" type="line"/>
      <point x="7" y="-151" type="line"/>
      <point x="48" y="-151" type="line"/>
      <point x="12" y="-250" type="line"/>
      <point x="65" y="-250" type="line"/>
      <point x="112" y="-125" type="line"/>
      <point x="124" y="-40" type="line"/>
    </contour>
    <contour>
      <point x="80" y="0" type="move" name="_bottom"/>
    </contour>
  </outline>
</glyph>
<glyph name="endash" format="1">
  <advance width="637"/>
  <unicode hex="2013"/>
  <outline>
    <contour>
      <point x="72" y="318" type="line"/>
      <point x="60" y="223" type="line"/>
      <point x="558" y="223" type="line"/>
      <point x="571" y="318" type="line"/>
    </contour>
  </outline>
</glyph>
<glyph name="emdash" format="1">
  <advance width="1056"/>
  <unicode hex="2014"/>
  <outline>
    <contour>
      <point x="75" y="317" type="line"/>
      <point x="63" y="223" type="line"/>
      <point x="971" y="223" type="line"/>
      <point x="984" y="317" type="line"/>
    </contour>
  </outline>
</glyph>
<glyph name="quoteleft" format="1">
  <advance width="224"/>
  <unicode hex="2018"/>
  <outline>
    <contour>
      <point x="151" y="686" type="line"/>
      <point x="95" y="536" type="line"/>
      <point x="83" y="451" type="line"/>
      <point x="184" y="451" type="line"/>
      <point x="200" y="562" type="line"/>
      <point x="159" y="562" type="line"/>
      <point x="203" y="686" type="line"/>
    </contour>
  </outline>
</glyph>
<glyph name="quotedblbase" format="1">
  <advance width="379"/>
  <unicode hex="201E"/>
  <outline>
    <contour>
      <point x="185" y="111" type="line"/>
      <point x="169" y="0" type="line"/>
      <point x="210" y="0" type="line"/>
      <point x="166" y="-124" type="line"/>
      <point x="218" y="-124" type="line"/>
      <point x="274" y="26" type="line"/>
      <point x="286" y="111" type="line"/>
    </contour>
    <contour>
      <point x="43" y="111" type="line"/>
      <point x="27" y="0" type="line"/>
      <point x="68" y="0" type="line"/>
      <point x="24" y="-124" type="line"/>
      <point x="76" y="-124" type="line"/>
      <point x="132" y="26" type="line"/>
      <point x="144" y="111" type="line"/>
    </contour>
  </outline>
</glyph>
<glyph name="guilsinglleft" format="1">
  <advance width="276"/>
  <unicode hex="2039"/>
  <outline>
    <contour>
      <point x="200" y="511" type="line"/>
      <point x="55" y="337" type="line"/>
      <point x="151" y="163" type="line"/>
      <point x="202" y="163" type="line"/>
      <point x="134" y="337" type="line"/>
      <point x="251" y="511" type="line"/>
    </contour>
  </outline>
</glyph>
<glyph name="fraction" format="1">
  <advance width="479"/>
  <unicode hex="2044"/>
  <outline>
    <contour>
      <point x="478" y="686" type="line"/>
      <point x="-36" y="0" type="line"/>
      <point x="22" y="0" type="line"/>
      <point x="534" y="686" type="line"/>
    </contour>
  </outline>
</glyph>
<glyph name="estimated" format="1">
  <advance width="760"/>
  <unicode hex="212E"/>
  <outline>
    <contour>
      <point x="108" y="150" type="line"/>
      <point x="194" y="70" type="line"/>
      <point x="194" y="599" type="line"/>
      <point x="108" y="539" type="line"/>
    </contour>
    <contour>
      <point x="553" y="599" type="line"/>
      <point x="553" y="348" type="line"/>
      <point x="642" y="348" type="line"/>
      <point x="642" y="539" type="line"/>
    </contour>
    <contour>
      <point x="97" y="316" type="line"/>
      <point x="657" y="316" type="line"/>
      <point x="657" y="371" type="line"/>
      <point x="97" y="371" type="line"/>
    </contour>
    <contour>
      <point x="679" y="316" type="line"/>
      <point x="679" y="368" type="line" smooth="yes"/>
      <point x="679" y="573"/>
      <point x="557" y="696"/>
      <point x="375" y="696" type="curve" smooth="yes"/>
      <point x="193" y="696"/>
      <point x="71" y="573"/>
      <point x="71" y="367" type="curve" smooth="yes"/>
      <point x="71" y="319" type="line" smooth="yes"/>
      <point x="71" y="113"/>
      <point x="193" y="-10"/>
      <point x="375" y="-10" type="curve" smooth="yes"/>
      <point x="491" y="-10"/>
      <point x="582" y="36"/>
      <point x="636" y="120" type="curve"/>
      <point x="570" y="159" type="line"/>
      <point x="529" y="98"/>
      <point x="459" y="65"/>
      <point x="375" y="65" type="curve" smooth="yes"/>
      <point x="240" y="65"/>
      <point x="146" y="155"/>
      <point x="146" y="319" type="curve" smooth="yes"/>
      <point x="146" y="367" type="line" smooth="yes"/>
      <point x="146" y="531"/>
      <point x="238" y="621"/>
      <point x="375" y="621" type="curve" smooth="yes"/>
      <point x="512" y="621"/>
      <point x="604" y="531"/>
      <point x="604" y="366" type="curve" smooth="yes"/>
      <point x="604" y="316" type="line"/>
    </contour>
  </outline>
</glyph>
<glyph name="summation" format="1">
  <advance width="605"/>
  <unicode hex="2211"/>
  <outline>
    <contour>
      <point x="97" y="708" type="line"/>
      <point x="88" y="642" type="line"/>
      <point x="304" y="306" type="line"/>
      <point x="-19" y="-35" type="line"/>
      <point x="-28" y="-98" type="line"/>
      <point x="520" y="-98" type="line"/>
      <point x="534" y="4" type="line"/>
      <point x="127" y="4" type="line"/>
      <point x="127" y="8" type="line"/>
      <point x="422" y="318" type="line"/>
      <point x="232" y="609" type="line"/>
      <point x="233" y="613" type="line"/>
      <point x="602" y="613" type="line"/>
      <point x="615" y="708" type="line"/>
    </contour>
  </outline>
</glyph>
<glyph name="integral" format="1">
  <advance width="266"/>
  <unicode hex="222B"/>
  <outline>
    <contour>
      <point x="239" y="750"/>
      <point x="145" y="731"/>
      <point x="132" y="638" type="curve" smooth="yes"/>
      <point x="111" y="493"/>
      <point x="78" y="164"/>
      <point x="49" y="-142" type="curve" smooth="yes"/>
      <point x="45" y="-186"/>
      <point x="-17" y="-200"/>
      <point x="-43" y="-200" type="curve"/>
      <point x="-50" y="-250" type="line"/>
      <point x="14" y="-250"/>
      <point x="108" y="-234"/>
      <point x="122" y="-138" type="curve" smooth="yes"/>
      <point x="142" y="5"/>
      <point x="175" y="338"/>
      <point x="204" y="644" type="curve" smooth="yes"/>
      <point x="208" y="687"/>
      <point x="273" y="701"/>
      <point x="299" y="701" type="curve"/>
      <point x="306" y="750" type="line"/>
    </contour>
  </outline>
</glyph>
<glyph name="approxequal" format="1">
  <advance width="615"/>
  <unicode hex="2248"/>
  <outline>
    <contour>
      <point x="573" y="410"/>
      <point x="513" y="367"/>
      <point x="437" y="367" type="curve" smooth="yes"/>
      <point x="349" y="367"/>
      <point x="294" y="433"/>
      <point x="208" y="433" type="curve" smooth="yes"/>
      <point x="130" y="433"/>
      <point x="68" y="387"/>
      <point x="34" y="355" type="curve"/>
      <point x="22" y="270" type="line"/>
      <point x="56" y="302"/>
      <point x="118" y="348"/>
      <point x="196" y="348" type="curve" smooth="yes"/>
      <point x="284" y="348"/>
      <point x="339" y="282"/>
      <point x="425" y="282" type="curve" smooth="yes"/>
      <point x="500" y="282"/>
      <point x="565" y="326"/>
      <point x="599" y="360" type="curve"/>
      <point x="610" y="445" type="line"/>
    </contour>
    <contour>
      <point x="547" y="202"/>
      <point x="482" y="158"/>
      <point x="407" y="158" type="curve" smooth="yes"/>
      <point x="319" y="158"/>
      <point x="264" y="224"/>
      <point x="178" y="224" type="curve" smooth="yes"/>
      <point x="100" y="224"/>
      <point x="38" y="178"/>
      <point x="4" y="146" type="curve"/>
      <point x="-7" y="61" type="line"/>
      <point x="30" y="94"/>
      <point x="87" y="139"/>
      <point x="166" y="139" type="curve" smooth="yes"/>
      <point x="254" y="139"/>
      <point x="309" y="73"/>
      <point x="395" y="73" type="curve" smooth="yes"/>
      <point x="470" y="73"/>
      <point x="535" y="117"/>
      <point x="569" y="151" type="curve"/>
      <point x="581" y="236" type="line"/>
    </contour>
  </outline>
</glyph>
<glyph name="notequal" format="1">
  <advance width="615"/>
  <unicode hex="2260"/>
  <outline>
    <contour>
      <point x="473" y="511" type="line"/>
      <point x="442" y="474"/>
      <point x="412" y="438"/>
      <point x="380" y="401" type="curve"/>
      <point x="71" y="401" type="line"/>
      <point x="59" y="318" type="line"/>
      <point x="315" y="318" type="line"/>
      <point x="206" y="189" type="line"/>
      <point x="41" y="189" type="line"/>
      <point x="29" y="105" type="line"/>
      <point x="141" y="105" type="line"/>
      <point x="110" y="70"/>
      <point x="82" y="35"/>
      <point x="53" y="0" type="curve"/>
      <point x="135" y="0" type="line"/>
      <point x="223" y="105" type="line"/>
      <point x="532" y="105" type="line"/>
      <point x="544" y="189" type="line"/>
      <point x="287" y="189" type="line"/>
      <point x="324" y="232"/>
      <point x="360" y="275"/>
      <point x="396" y="318" type="curve"/>
      <point x="562" y="318" type="line"/>
      <point x="574" y="401" type="line"/>
      <point x="461" y="401" type="line"/>
      <point x="552" y="511" type="line"/>
    </contour>
  </outline>
</glyph>
<glyph name="lozenge" format="1">
  <advance width="489"/>
  <unicode hex="25CA"/>
  <outline>
    <contour>
      <point x="248" y="686" type="line"/>
      <point x="36" y="343" type="line"/>
      <point x="151" y="0" type="line"/>
      <point x="254" y="0" type="line"/>
      <point x="468" y="343" type="line"/>
      <point x="351" y="686" type="line"/>
    </contour>
    <contour>
      <point x="321" y="520"/>
      <point x="351" y="432"/>
      <point x="386" y="343" type="curve"/>
      <point x="326" y="252"/>
      <point x="270" y="165"/>
      <point x="214" y="74" type="curve"/>
      <point x="119" y="343" type="line"/>
      <point x="175" y="432"/>
      <point x="232" y="520"/>
      <point x="289" y="611" type="curve"/>
    </contour>
  </outline>
</glyph>
